<?xml version="1.0" encoding="UTF-8" standalone="no"?>
<!-- Created with Inkscape (http://www.inkscape.org/) -->

<svg
   xmlns:dc="http://purl.org/dc/elements/1.1/"
   xmlns:cc="http://creativecommons.org/ns#"
   xmlns:rdf="http://www.w3.org/1999/02/22-rdf-syntax-ns#"
   xmlns:svg="http://www.w3.org/2000/svg"
   xmlns="http://www.w3.org/2000/svg"
   xmlns:sodipodi="http://sodipodi.sourceforge.net/DTD/sodipodi-0.dtd"
   xmlns:inkscape="http://www.inkscape.org/namespaces/inkscape"
   width="744.09448"
   height="1052.3622"
   id="svg3760"
   version="1.1"
   inkscape:version="0.91 r13725"
   viewBox="0 0 744.09448 1052.3622"
   sodipodi:docname="Attiki-sterea ellada.svg">
  <defs
     id="defs3762" />
  <sodipodi:namedview
     id="base"
     pagecolor="#ffffff"
     bordercolor="#ffffff"
     borderopacity="0.0"
     inkscape:pageopacity="0.0"
     inkscape:pageshadow="0"
     inkscape:zoom="2.5188034"
     inkscape:cx="-867.14286"
     inkscape:cy="572.85714"
     inkscape:document-units="px"
     inkscape:current-layer="layer1"
     showgrid="false"
     inkscape:window-width="1920"
     inkscape:window-height="1017"
     inkscape:window-x="-8"
     inkscape:window-y="-8"
     inkscape:window-maximized="1" />
  <metadata
     id="metadata3765">
    <rdf:RDF>
      <cc:Work
         rdf:about="">
        <dc:format>image/svg+xml</dc:format>
        <dc:type
           rdf:resource="http://purl.org/dc/dcmitype/StillImage" />
        <dc:title></dc:title>
      </cc:Work>
    </rdf:RDF>
  </metadata>
  <g
     inkscape:label="Layer 1"
     inkscape:groupmode="layer"
     id="layer1">
    <path
       style="display:inline;fill:#ff8080"
       d="m -786.14025,513.98173 c -5.71857,-8.113 -10.76362,-9.61876 -15.14834,-4.52121 -2.4274,2.82202 -3.31344,3.18674 -3.91751,1.61256 -0.42935,-1.11886 -2.02954,-2.03428 -3.55598,-2.03428 -1.52644,0 -3.40192,-1.10289 -4.16773,-2.45086 -1.1554,-2.03373 -1.86201,-2.16358 -4.15163,-0.76297 -2.19606,1.34338 -3.08061,1.30069 -4.33369,-0.20918 -0.9296,-1.1201 -6.16002,-2.303 -12.77065,-2.88817 -9.63461,-0.85286 -11.09138,-1.32138 -10.44461,-3.35918 0.5526,-1.74111 -0.5474,-2.83781 -4.15468,-4.14222 -3.15132,-1.13954 -4.90628,-2.68228 -4.90628,-4.31299 0,-3.94808 -3.89183,-6.54994 -6.94513,-4.64312 -2.06715,1.29096 -3.17158,0.88733 -6.18849,-2.26163 -2.15158,-2.24577 -3.67227,-5.43523 -3.67227,-7.70213 0,-3.38014 0.39821,-3.74054 3.1511,-2.85183 6.41586,2.07121 18.11338,0.81868 21.42704,-2.29433 l 3.13414,-2.94438 5.51965,2.81592 c 5.57979,2.84659 18.24321,5.43957 32.88138,6.73283 5.70662,0.50417 8.83271,0.11795 10.92882,-1.35023 2.22721,-1.55999 4.28002,-1.75438 8.50412,-0.80529 3.06252,0.6881 7.2192,0.83673 9.23707,0.33027 2.60873,-0.65475 3.37744,-0.4493 2.66032,0.71101 -0.56009,0.90626 1.0693,4.57767 3.66454,8.25708 5.67794,8.0499 5.75421,10.1685 0.56125,15.58878 -3.57112,3.72745 -3.93767,4.91082 -3.19639,10.31909 0.81032,5.91192 0.68941,6.1623 -3.75145,7.76814 -6.06292,2.19238 -5.35379,2.50722 -10.3646,-4.60168 z"
       id="path3730"
       inkscape:connector-curvature="0" />
    <path
       style="display:inline;fill:#ff8080"
       d="m -734.29945,565.37642 c -2.28665,-0.3721 -3.15111,-1.46925 -3.15111,-3.99926 0,-1.96769 -0.61008,-3.10942 -1.40049,-2.62092 -0.77027,0.47605 -1.40049,-0.38634 -1.40049,-1.91644 0,-3.37988 -6.73684,-8.98339 -9.82836,-8.17494 -1.4902,0.3897 -3.80685,-1.90647 -6.97862,-6.91694 -3.43759,-5.43037 -5.61581,-7.50028 -7.89272,-7.50028 -3.71799,0 -5.41087,-2.19083 -5.41087,-7.00246 0,-2.65384 -0.73202,-3.50122 -3.02456,-3.50122 -5.17547,0 -5.09413,-1.74623 0.16215,-3.48096 5.01099,-1.65378 5.02507,-1.68144 4.16816,-8.19241 -0.76356,-5.80177 -0.45367,-6.91306 2.76858,-9.92825 1.9956,-1.86738 3.62837,-4.54582 3.62837,-5.95209 0,-3.45456 5.16633,-3.34692 16.06576,0.33473 7.85535,2.6534 18.94653,10.79514 18.94653,13.90813 0,0.66985 -1.20353,1.5999 -2.67451,2.06677 -4.49791,1.42758 -6.14531,4.34707 -4.34799,7.70539 0.86614,1.61841 1.62369,7.17313 1.68342,12.34382 0.0597,5.17069 0.86656,10.34659 1.79294,11.50199 0.92639,1.15541 2.49505,4.14953 3.48592,6.6536 1.43066,3.6155 1.44589,4.98144 0.074,6.6345 -0.95018,1.1449 -1.37945,2.98892 -0.95392,4.09781 1.01891,2.65525 -1.7727,4.5805 -5.71216,3.93943 z"
       id="path3732"
       inkscape:connector-curvature="0" />
    <path
       style="display:inline;fill:#ff8080"
       d="m -813.47411,475.12376 c -1.92567,-1.10082 -6.40091,-2.02382 -9.94497,-2.05111 -4.13904,-0.0319 -8.8448,-1.32629 -13.15687,-3.61904 l -6.71313,-3.5694 -3.72566,3.5694 c -2.86081,2.74084 -5.17081,3.56497 -9.95123,3.55029 -9.37174,-0.0288 -12.4467,-1.26199 -13.46496,-5.40007 -0.49858,-2.0262 -3.00083,-6.25547 -5.56054,-9.39836 -3.67703,-4.51477 -6.33754,-6.18294 -12.67359,-7.94649 -5.29372,-1.47343 -8.84149,-1.79225 -10.43772,-0.93798 -1.32998,0.71179 -5.45908,1.29416 -9.17579,1.29416 -5.2409,0 -7.15025,-0.62868 -8.50688,-2.80099 -0.96209,-1.54054 -3.1619,-2.80162 -4.88848,-2.8024 -4.97386,-0.002 -11.36057,-12.39101 -10.13316,-19.65599 0.51449,-3.04522 1.42363,-5.83848 2.02033,-6.20726 0.59669,-0.36878 6.59716,-1.29685 13.33437,-2.06238 6.73722,-0.76554 13.12661,-2.11983 14.19865,-3.00955 1.07204,-0.88972 1.94917,-4.10282 1.94917,-7.14022 0,-7.08341 1.82055,-10.39066 6.34484,-11.52618 3.02595,-0.75947 4.63566,0.13935 9.84039,5.49462 3.42244,3.52145 6.22263,7.62435 6.22263,9.11757 0,1.49321 1.418,3.58821 3.15111,4.65554 3.50999,2.16163 19.49811,7.08343 28.80794,8.86827 l 6.04997,1.15988 -2.93056,3.12657 c -3.33884,3.56216 -12.0197,3.82062 -16.04757,0.47778 -1.74526,-1.44844 -3.08976,-1.55781 -5.42384,-0.44122 -1.70685,0.81653 -4.20625,1.83708 -5.55422,2.26788 -3.29077,1.05172 -3.08589,2.96398 0.70024,6.53584 2.49541,2.35419 4.3168,2.82052 8.75307,2.24107 4.36253,-0.56981 6.26694,-0.10721 8.60747,2.09084 2.77805,2.60894 6.26284,3.70836 14.0343,4.42769 1.66919,0.15451 3.50734,0.75358 4.08477,1.33129 0.57743,0.5777 3.14215,1.05036 5.69939,1.05036 4.03173,0 4.9351,0.68353 6.79899,5.14443 3.3449,8.00548 4.44431,8.87035 9.17814,7.22012 2.26346,-0.78904 4.11537,-1.98968 4.11537,-2.66808 0,-0.70413 1.3523,-0.69423 3.15111,0.0231 1.7331,0.69109 4.33977,1.63605 5.79259,2.09991 2.45619,0.78422 2.48075,1.02101 0.35013,3.37532 -2.86245,3.16297 -2.94934,5.81262 -0.19064,5.81262 1.4005,0 2.10074,1.40049 2.10074,4.20147 0,4.08559 -0.18348,4.20011 -6.65233,4.15185 -3.65879,-0.0273 -8.22789,-0.9503 -10.15357,-2.05111 z"
       id="path3736"
       inkscape:connector-curvature="0" />
    <path
       style="display:inline;fill:#ff8080"
       d="m -868.11255,491.66601 c -2.69164,-6.07516 -9.67892,-13.43804 -12.75253,-13.43804 -1.22899,0 -2.35056,2.13187 -2.93193,5.57296 l -0.94155,5.57296 -6.96516,-0.77557 c -4.23217,-0.47126 -7.70878,-0.15843 -8.86031,0.79726 -1.32595,1.10044 -2.17167,1.1254 -2.81584,0.0831 -1.34228,-2.17186 -9.5059,-5.32317 -16.51138,-6.3737 -4.67454,-0.701 -6.51637,-0.39397 -7.94209,1.32391 -1.40824,1.69683 -2.31456,1.85613 -3.75567,0.66011 -2.83834,-2.35562 -0.9683,-4.06006 4.45452,-4.06006 l 4.81907,0 0,-10.97244 c 0,-10.44603 0.20323,-11.15351 4.23622,-14.74692 3.35257,-2.98715 5.61662,-3.76664 10.85381,-3.73685 3.63967,0.0207 8.82336,-0.0135 11.5193,-0.076 9.75114,-0.22604 13.91485,1.57243 18.97108,8.19438 4.17436,5.467 4.83728,7.40067 4.83728,14.10999 0,6.44723 0.61636,8.41814 3.60971,11.54253 2.57447,2.68717 3.4647,4.91823 3.10405,7.77933 l -0.50567,4.01162 -2.42291,-5.46861 z"
       id="path3738"
       inkscape:connector-curvature="0" />
    <path
       style="display:inline;fill:#ff8080"
       d="m -816.32102,533.83113 c -0.45438,-1.1841 0.19562,-3.28194 1.44444,-4.66188 1.24883,-1.37993 2.27059,-3.41892 2.27059,-4.53108 0,-1.11216 2.14127,-3.17526 4.75838,-4.58466 2.61711,-1.40941 5.91153,-4.70383 7.32094,-7.32094 1.4094,-2.6171 3.51072,-4.75837 4.6696,-4.75837 1.15887,0 5.30656,3.46541 9.21709,7.70092 l 7.11004,7.70092 -5.55139,2.89354 c -3.05326,1.59145 -8.07877,2.92843 -11.1678,2.97106 -5.87972,0.0811 -14.14172,2.89175 -15.6435,5.32167 -1.29309,2.09227 -3.48373,1.73057 -4.42839,-0.73118 z"
       id="path3734"
       inkscape:connector-curvature="0" />
  </g>
</svg>
