<?xml version="1.0" encoding="UTF-8" standalone="no"?>
<!-- Created with Inkscape (http://www.inkscape.org/) -->

<svg
   xmlns:dc="http://purl.org/dc/elements/1.1/"
   xmlns:cc="http://creativecommons.org/ns#"
   xmlns:rdf="http://www.w3.org/1999/02/22-rdf-syntax-ns#"
   xmlns:svg="http://www.w3.org/2000/svg"
   xmlns="http://www.w3.org/2000/svg"
   xmlns:sodipodi="http://sodipodi.sourceforge.net/DTD/sodipodi-0.dtd"
   xmlns:inkscape="http://www.inkscape.org/namespaces/inkscape"
   viewBox="-89.404 -7.422 310 360"
   enable-background="new -89.404 -7.422 610 460"
   id="svg3750"
   version="1.1"
   inkscape:version="0.91 r13725"
   sodipodi:docname="Attiki-sterea-ellada.svg">
  <defs
     id="defs3752" />
  <sodipodi:namedview
     id="base"
     pagecolor="#ffffff"
     bordercolor="#666666"
     borderopacity="1.0"
     inkscape:pageopacity="0.0"
     inkscape:pageshadow="2"
     inkscape:zoom="1.1498047"
     inkscape:cx="251.06591"
     inkscape:cy="495.39824"
     inkscape:document-units="mm"
     inkscape:current-layer="layer1"
     showgrid="false"
     inkscape:window-width="1920"
     inkscape:window-height="1018"
     inkscape:window-x="-8"
     inkscape:window-y="-8"
     inkscape:window-maximized="1" />
  <metadata
     id="metadata3755">
    <rdf:RDF>
      <cc:Work
         rdf:about="">
        <dc:format>image/svg+xml</dc:format>
        <dc:type
           rdf:resource="http://purl.org/dc/dcmitype/StillImage" />
        <dc:title></dc:title>
      </cc:Work>
    </rdf:RDF>
  </metadata>
  <g
     inkscape:label="Layer 1"
     inkscape:groupmode="layer"
     id="layer1">
    <path
       style="display:inline;fill:#d40000"
       d="m 138.70181,159.28688 c -4.53976,-5.79713 -8.54483,-6.87307 -12.0257,-3.23062 -1.92702,2.01646 -2.63041,2.27708 -3.10996,1.15225 -0.34084,-0.79946 -1.61117,-1.45358 -2.82296,-1.45358 -1.21178,0 -2.70065,-0.78807 -3.3086,-1.75126 -0.91722,-1.45321 -1.47818,-1.54598 -3.29582,-0.54518 -1.74336,0.95991 -2.44558,0.92939 -3.44036,-0.14938 -0.73797,-0.80038 -4.8902,-1.64562 -10.13812,-2.06372 -7.648556,-0.60943 -8.805031,-0.94421 -8.291577,-2.40031 0.438689,-1.24411 -0.434566,-2.02775 -3.298252,-2.95982 -2.501707,-0.81425 -3.894904,-1.91662 -3.894904,-3.08183 0,-2.82111 -3.089576,-4.68026 -5.513475,-3.31773 -1.641032,0.92245 -2.517796,0.63402 -4.912806,-1.61604 -1.708059,-1.60472 -2.915278,-3.88375 -2.915278,-5.50356 0,-2.41527 0.316124,-2.67278 2.50154,-2.03777 5.093307,1.48 14.379525,0.58499 17.010115,-1.63941 l 2.488071,-2.10389 4.38184,2.01211 c 4.429576,2.03403 14.482596,3.88684 26.103276,4.81092 4.53027,0.36026 7.01196,0.0843 8.67597,-0.96479 1.7681,-1.11468 3.39775,-1.25359 6.7511,-0.57541 2.43123,0.49169 5.73106,0.59787 7.33296,0.23597 2.07097,-0.46787 2.68123,-0.32104 2.11193,0.50803 -0.44463,0.64759 0.84887,3.27097 2.90914,5.90008 4.5075,5.75204 4.56805,7.26589 0.44555,11.13893 -2.83497,2.66344 -3.12596,3.50903 -2.53749,7.37349 0.64328,4.22436 0.5473,4.40326 -2.97813,5.5507 -4.81312,1.56657 -4.25017,1.79155 -8.22806,-3.2881 z"
       id="path3730"
       inkscape:connector-curvature="0" />
    <path
       style="display:inline;fill:#d40000"
       d="m 178.38354,195.76538 c -1.81529,-0.26587 -2.50155,-1.04984 -2.50155,-2.85766 0,-1.40599 -0.48432,-2.22181 -1.11179,-1.87277 -0.61149,0.34016 -1.11179,-0.27605 -1.11179,-1.36938 0,-2.41509 -5.34813,-6.41905 -7.80237,-5.84138 -1.18301,0.27845 -3.02212,-1.36227 -5.54006,-4.94247 -2.72898,-3.88027 -4.45818,-5.35933 -6.26574,-5.35933 -2.95156,0 -4.29548,-1.56544 -4.29548,-5.00359 0,-1.89629 -0.58111,-2.50178 -2.40109,-2.50178 -4.1086,0 -4.04403,-1.24778 0.12872,-2.48733 3.97804,-1.18169 3.98922,-1.20147 3.30895,-5.85387 -0.60616,-4.14562 -0.36015,-4.93971 2.19787,-7.0942 1.58423,-1.33432 2.88042,-3.2482 2.88042,-4.25304 0,-2.46847 4.10136,-2.39155 12.75401,0.23926 6.23605,1.89597 15.04092,7.71364 15.04092,9.93801 0,0.47865 -0.95543,1.14321 -2.12318,1.47681 -3.57072,1.02009 -4.87853,3.10618 -3.45171,5.50586 0.68759,1.15643 1.28898,5.12555 1.33641,8.82024 0.0476,3.69473 0.68793,7.39315 1.42332,8.21874 0.73544,0.82558 1.98074,2.96504 2.76736,4.7543 1.13574,2.58346 1.14784,3.5595 0.0588,4.74068 -0.75434,0.81808 -1.09512,2.13574 -0.75729,2.92808 0.80888,1.8973 -1.40729,3.27298 -4.53467,2.81492 z"
       id="path3732"
       inkscape:connector-curvature="0" />
    <path
       style="display:inline;fill:#d40000"
       d="m 117.00249,131.52101 c -1.52872,-0.7866 -5.08144,-1.44611 -7.89494,-1.46561 -3.28582,-0.0228 -7.02154,-0.9477 -10.44473,-2.58599 l -5.329297,-2.5505 -2.957659,2.5505 c -2.271086,1.95847 -4.10491,2.54735 -7.899904,2.53684 -7.439868,-0.0202 -9.880963,-0.90174 -10.689319,-3.85858 -0.395806,-1.44781 -2.382245,-4.46985 -4.414302,-6.71559 -2.919056,-3.22602 -5.031133,-4.418 -10.061082,-5.67815 -4.202486,-1.05282 -7.018924,-1.28064 -8.286112,-0.67023 -1.05582,0.50862 -4.333757,0.92473 -7.284312,0.92473 -4.160551,0 -5.67631,-0.4492 -6.753287,-2.00143 -0.76377,-1.10078 -2.510114,-2.0019 -3.880781,-2.00245 -3.948558,-10e-4 -9.018724,-8.85395 -8.044331,-14.045124 0.408433,-2.175958 1.130166,-4.171875 1.603863,-4.435391 0.473689,-0.263516 5.237235,-0.926662 10.585649,-1.47367 5.348426,-0.547009 10.42072,-1.514712 11.271771,-2.150462 0.851053,-0.635751 1.547372,-2.931669 1.547372,-5.102031 0,-5.061445 1.445267,-7.424634 5.036929,-8.235994 2.402188,-0.54268 3.680076,0.0995 7.811913,3.926158 2.716945,2.51624 4.939908,5.447958 4.939908,6.514936 0,1.066977 1.125698,2.56394 2.501549,3.326613 2.786447,1.544587 15.47881,5.061445 22.869528,6.336794 l 4.802839,0.82878 -2.326458,2.234089 c -2.650581,2.545332 -9.541982,2.730032 -12.739554,0.341396 -1.385498,-1.034974 -2.452843,-1.113133 -4.305783,-0.315267 -1.355004,0.583442 -3.339182,1.312669 -4.409283,1.620518 -2.612417,0.751485 -2.449772,2.117905 0.555892,4.670145 1.981014,1.68219 3.426944,2.01541 6.948731,1.60135 3.463248,-0.40715 4.975087,-0.0767 6.833146,1.49403 2.205385,1.86421 4.971824,2.64979 11.141303,3.16378 1.325105,0.1104 2.784331,0.53848 3.242741,0.95128 0.45839,0.41279 2.49443,0.75052 4.52452,0.75052 3.20063,0 3.91778,0.48842 5.39746,3.67596 2.65539,5.72028 3.52816,6.33828 7.28618,5.15909 1.79688,-0.56379 3.26703,-1.42171 3.26703,-1.90646 0,-0.50313 1.07355,-0.49604 2.50155,0.0177 1.37585,0.49382 3.44518,1.16905 4.59852,1.50049 1.94988,0.56038 1.96937,0.72958 0.27796,2.41183 -2.27238,2.26009 -2.34136,4.15341 -0.15133,4.15341 1.11181,0 1.6677,1.0007 1.6677,3.00213 0,2.91936 -0.14565,3.0012 -5.28103,2.96671 -2.90457,-0.0202 -6.53181,-0.67904 -8.06053,-1.46561 z"
       id="path3736"
       inkscape:connector-curvature="0" />
    <path
       style="display:inline;fill:#d40000"
       d="m 73.13621,143.34124 c -2.136791,-4.341 -7.683727,-9.60214 -10.123749,-9.60214 -0.975651,0 -1.866022,1.52333 -2.327548,3.98217 l -0.747463,3.98214 -5.529377,-0.55418 c -3.359758,-0.33674 -6.119707,-0.11317 -7.033862,0.56967 -1.052623,0.78632 -1.724008,0.80414 -2.23539,0.0592 -1.065585,-1.55188 -7.546372,-3.80364 -13.107757,-4.55431 -3.71094,-0.50087 -5.173101,-0.28149 -6.304926,0.946 -1.117947,1.21246 -1.837441,1.32629 -2.981482,0.47169 -2.253253,-1.6832 -0.768698,-2.90111 3.536272,-2.90111 l 3.825678,0 0,-7.84034 c 0,-7.46418 0.161348,-7.96972 3.362976,-10.53738 2.661477,-2.13446 4.458822,-2.69145 8.616427,-2.67015 2.889396,0.0152 7.004531,-0.01 9.144737,-0.0545 7.741059,-0.16153 11.046472,1.1236 15.060419,5.85529 3.313866,3.90643 3.840134,5.28812 3.840134,10.08225 0,4.60684 0.489304,6.01517 2.86561,8.2477 2.043776,1.9201 2.750496,3.51429 2.464189,5.5587 l -0.401432,2.86649 -1.923456,-3.9076 z"
       id="path3738"
       inkscape:connector-curvature="0" />
    <path
       style="display:inline;fill:#d40000"
       d="m 114.74243,172.73386 c -0.36071,-0.8461 0.15531,-2.34509 1.14669,-3.33112 0.9914,-0.98604 1.80255,-2.44299 1.80255,-3.23769 0,-0.79467 1.69987,-2.26886 3.77749,-3.27595 2.07762,-1.0071 4.69294,-3.3611 5.81181,-5.23116 1.11887,-1.87003 2.78703,-3.40008 3.70702,-3.40008 0.91998,0 4.21267,2.4762 7.3171,5.50267 l 5.64439,5.50267 -4.40704,2.06757 c -2.42386,1.13718 -6.41343,2.09251 -8.86569,2.12296 -4.66769,0.058 -11.22657,2.0663 -12.41878,3.80261 -1.02653,1.49501 -2.7656,1.23656 -3.51554,-0.52248 z"
       id="path3734"
       inkscape:connector-curvature="0" />
  </g>
</svg>
